# xmcd CD database file
#
# Track frame offsets:
#	150
#	13757
#	27782
#	40130
#	54000
#	68238
#	78429
#	91161
#
# Disc length: 1394 seconds
#
# Revision: 0
# Processed by: cddbd v1.5.2PL0 Copyright (c) Steve Scherf et al.
# Submitted via: CDex 1.70beta2
#
DISCID=53057008
DTITLE=divers - Les as de la guitare acoustique 1927-1940 CD jazz magazine
DYEAR=2013
DGENRE=Jazz
TTITLE0=Joe Venuti's Blue Four (avec Eddie Lang) - Four String Joe
TTITLE1=Louis Armstrong (avec Lonnie Johnson) - I'm Not Rough
TTITLE2=Freddie Jenkins (avec Bernard Addison) - Toledo Shuffle
TTITLE3=Jeter-Pillars "Club Plantation" Orchestra (avec Floyd Smith) - Lazy Rhythm
TTITLE4=Jimmie Noone (avec Teddy Bunn) - Four or Five Times
TTITLE5=Nat King Cole (avec Oscar Moore) - With Plenty of Money and You
TTITLE6=Oscar Aleman - Limehouse Blues
TTITLE7=Fats Waller (with Al Casey) - Everybody Loves My Baby
EXTD=YEAR: 2013
EXTT0=
EXTT1=
EXTT2=
EXTT3=
EXTT4=
EXTT5=
EXTT6=
EXTT7=
PLAYORDER=
